DataType=double
version=3
OpenSimVersion=4.5-2023-11-26-efcdfd3eb
endheader
time	EMG01_right_gast_med	EMG02_right_glut_max	EMG03_left_gast_med	EMG04_left_glut_max	EMG05_right_glut_med	EMG06_right_bic_fem	EMG07_right_rect_fem	EMG08_right_vast_lat	EMG09_right_vast_med	EMG10_right_tens_fasc_lat	EMG11_left_glut_med	EMG12_left_bic_fem	EMG13_left_rect_fem	EMG14_left_vast_lat	EMG15_left_vast_med	EMG16_left_tens_fasc_lat
0.84	0.8593126062840799	0.06152504883819124	0.06312238728696673	0.03133661701422135	0.06127191034125985	0.08606581429624582	0.1052246507576533	0.04180480247812599	0.02260308079650273	0.1027080963486685	0.1600131774997547	0.1032005694732506	0.2311182240809974	0.1484707509371191	0.3483453253509463	0.05892149530517866
0.85	0.8226322346902688	0.07033519677846531	0.06339672084076943	0.03255964801474616	0.06296769585729839	0.08284994110950654	0.1024236461170754	0.04203012151908581	0.02286089586546834	0.1108940642232959	0.1622707759641882	0.1027996670746239	0.2369470768804873	0.1523245086404561	0.3671719846901995	0.06368577993832991
0.86	0.782752986084967	0.07948157676720627	0.0636398247443333	0.03383369662478542	0.06442577407200496	0.07971811599317546	0.09947684937144363	0.04226278391418219	0.02303733032233045	0.119202496671054	0.1640858406557011	0.1019963769375648	0.2418136047007391	0.1555745502128979	0.3843807523302715	0.06880268040794832
0.87	0.740111781043326	0.08890036973235456	0.06389628172649445	0.03514205328523354	0.06562876407425719	0.07671659474671531	0.09640341564241167	0.0424895303597641	0.02312983125738731	0.1275639937526374	0.1654378349711001	0.1007970101351009	0.2456702253808078	0.1581831013607462	0.3997500662806346	0.07423007774370566
0.88	0.6951714934850983	0.09852107590680437	0.06421232976552661	0.03646825482486792	0.06656227092062997	0.07389006342767719	0.09322236745018372	0.04269673411983795	0.02313662579551948	0.1359053335584839	0.1663108250039737	0.0992122209421348	0.2484815213647221	0.1601195889724448	0.4130790399837865	0.07992273749553594
0.89	0.6484121465421078	0.108267137906906	0.06463554966347358	0.03779622960338795	0.06721522921270856	0.07128109732489632	0.08995240299499327	0.04287069216327678	0.02305671800838712	0.1441501228075424	0.1666939538416026	0.09725692425982028	0.2502249241960325	0.161361256072994	0.4241918123792883	0.08583281522040051
0.9	0.6003221939179771	0.1180567238769543	0.0652145068149626	0.03911041809127662	0.06758020262855301	0.06892965452180687	0.08661175216317597	0.04299793830114686	0.02288989332084345	0.1522195438855261	0.1665818366549317	0.0949501321825897	0.2508911536624273	0.161893643155692	0.4329415332890713	0.09191037213672711
0.91	0.5513900984961491	0.1278036681359903	0.06599834523040134	0.04039586873941489	0.06765362240236605	0.06687260883257494	0.08321808072244662	0.04306556852631391	0.02263673088491315	0.160033196844163	0.1659748522325248	0.09231470940347015	0.2504843923268868	0.1617109157218505	0.4392138208063623	0.09810389270356937
0.92	0.502096389451308	0.1374185622455031	0.06703633474493928	0.04163831042246924	0.06743594969393042	0.06514332798471405	0.07978843966536235	0.04306156754787466	0.02229862333530857	0.167510030839869	0.1648793058434412	0.08937705144867966	0.24902218207553	0.160816021788466	0.4429295191669084	0.1043607962000518
0.93	0.4529063457587114	0.1468099846308623	0.06837737483602221	0.04282420414539809	0.06693175113071143	0.06377130345399845	0.07633925390197094	0.0429751252474047	0.02187780230597156	0.1745693563664896	0.1633074434700724	0.08616669526242195	0.2465350393579953	0.1592206698142281	0.4440465912882933	0.1106279355221999
0.9399999999999999	0.4042634204834263	0.1558858516583557	0.07006946025712445	0.04394077796814388	0.0661496825748101	0.06278183799535399	0.0728863427839312	0.04279693261816439	0.02137736713212205	0.1811319283070169	0.1612773087317587	0.08271587594529617	0.2430657979573901	0.1569451260390833	0.4425610136463876	0.1168520776400738
0.95	0.3565834885865323	0.1645548671434623	0.07215911478316057	0.04497604997577032	0.06510238228726109	0.06219579556376983	0.06944496449184552	0.04251944822979593	0.02080131332665443	0.1871210891199861	0.1588124476810811	0.07905904501337695	0.2386686998803605	0.1540178381198486	0.4385066111209814	0.1229803607982216
0.96	0.3102499722805492	0.1727280409598272	0.07469079962191057	0.0459188444062229	0.06380628025193379	0.06202941624194235	0.06602987682960011	0.04213712758256739	0.02015455674947923	0.1924639594617018	0.1559414778043316	0.07523236454275611	0.2334082646623066	0.1504748977432553	0.4319538619007564	0.1289607237598895
0.97	0.2656098723191188	0.1803202416017524	0.07770630216090885	0.04675880575308054	0.06228133463780893	0.06229419655090054	0.06265540773215497	0.04164660844220227	0.01944294892904259	0.1970926599159135	0.1526975428645413	0.07127318906204257	0.2273579739167032	0.1463593591344473	0.4230077841562347	0.1347423031672759
0.98	0.2229707108606356	0.1872517428378389	0.08124410886462986	0.04748641488149982	0.06055070870479771	0.0629968336994845	0.05933552932544797	0.04104684569446621	0.01867327886436151	0.2009455437537837	0.1491176759476222	0.06721954432724835	0.2205988114542373	0.1417204336250858	0.4118050619882931	0.1402757972100081
